<mxfile host="app.diagrams.net" agent="Mozilla/5.0 (Windows NT 10.0; Win64; x64) AppleWebKit/537.36 (KHTML, like Gecko) Chrome/140.0.0.0 Safari/537.36" version="28.2.1">
  <diagram id="enterprise-arch" name="Enterprise Architecture">
    <mxGraphModel dx="1603" dy="811" grid="1" gridSize="10" guides="1" tooltips="1" connect="1" arrows="1" fold="1" page="1" pageScale="1" pageWidth="1920" pageHeight="1080" math="0" shadow="0">
      <root>
        <mxCell id="0" />
        <mxCell id="1" parent="0" />
        <mxCell id="ua" value="Usuario / API Client" style="rounded=1;whiteSpace=wrap;html=1;fillColor=#dae8fc;strokeColor=#6c8ebf;" parent="1" vertex="1">
          <mxGeometry x="60" y="120" width="160" height="60" as="geometry" />
        </mxCell>
        <mxCell id="gw" value="FastAPI / Uvicorn" style="rounded=1;whiteSpace=wrap;html=1;fillColor=#e1d5e7;strokeColor=#9673a6;" parent="1" vertex="1">
          <mxGeometry x="280" y="120" width="180" height="60" as="geometry" />
        </mxCell>
        <mxCell id="mw" value="Middlewares&#xa;Security / CORS / GZip / AccessLog" style="rounded=1;whiteSpace=wrap;html=1;fillColor=#ffe6cc;strokeColor=#d79b00;" parent="1" vertex="1">
          <mxGeometry x="500" y="100" width="220" height="100" as="geometry" />
        </mxCell>
        <mxCell id="routers" value="Routers /api/v1/*" style="rounded=1;whiteSpace=wrap;html=1;fillColor=#d5e8d4;strokeColor=#82b366;" parent="1" vertex="1">
          <mxGeometry x="800" y="120" width="160" height="60" as="geometry" />
        </mxCell>
        <mxCell id="services" value="Services (Domain)" style="rounded=1;whiteSpace=wrap;html=1;fillColor=#d5e8d4;strokeColor=#82b366;" parent="1" vertex="1">
          <mxGeometry x="1100" y="120" width="160" height="60" as="geometry" />
        </mxCell>
        <mxCell id="repos" value="Repositories" style="rounded=1;whiteSpace=wrap;html=1;fillColor=#d5e8d4;strokeColor=#82b366;" parent="1" vertex="1">
          <mxGeometry x="1370" y="120" width="160" height="60" as="geometry" />
        </mxCell>
        <mxCell id="auth" value="Auth (JWT Bearer)" style="rounded=1;whiteSpace=wrap;html=1;fillColor=#fff2cc;strokeColor=#d6b656;" parent="1" vertex="1">
          <mxGeometry x="660" y="280" width="160" height="50" as="geometry" />
        </mxCell>
        <mxCell id="rl" value="Rate Limiter (SlowAPI)" style="rounded=1;whiteSpace=wrap;html=1;fillColor=#fff2cc;strokeColor=#d6b656;" parent="1" vertex="1">
          <mxGeometry x="920" y="280" width="180" height="50" as="geometry" />
        </mxCell>
        <mxCell id="mdb" value="MongoDB" style="shape=cylinder;whiteSpace=wrap;html=1;boundedLbl=1;fillColor=#f8cecc;strokeColor=#b85450;" parent="1" vertex="1">
          <mxGeometry x="1370" y="400" width="160" height="80" as="geometry" />
        </mxCell>
        <mxCell id="redis" value="Redis" style="shape=cylinder;whiteSpace=wrap;html=1;boundedLbl=1;fillColor=#f8cecc;strokeColor=#b85450;" parent="1" vertex="1">
          <mxGeometry x="950" y="400" width="120" height="70" as="geometry" />
        </mxCell>
        <mxCell id="audit" value="MongoDB audit_logs" style="shape=folder;whiteSpace=wrap;html=1;fillColor=#f5f5f5;strokeColor=#666666;" parent="1" vertex="1">
          <mxGeometry x="530" y="400" width="160" height="60" as="geometry" />
        </mxCell>
        <mxCell id="e1" parent="1" source="ua" target="gw" edge="1">
          <mxGeometry relative="1" as="geometry" />
        </mxCell>
        <mxCell id="e2" parent="1" source="gw" target="mw" edge="1">
          <mxGeometry relative="1" as="geometry" />
        </mxCell>
        <mxCell id="e3" parent="1" source="mw" target="routers" edge="1">
          <mxGeometry relative="1" as="geometry" />
        </mxCell>
        <mxCell id="e4" parent="1" source="routers" target="services" edge="1">
          <mxGeometry relative="1" as="geometry" />
        </mxCell>
        <mxCell id="e5" parent="1" source="services" target="repos" edge="1">
          <mxGeometry relative="1" as="geometry" />
        </mxCell>
        <mxCell id="e6" parent="1" source="routers" target="auth" edge="1">
          <mxGeometry relative="1" as="geometry" />
        </mxCell>
        <mxCell id="e7" parent="1" source="routers" target="rl" edge="1">
          <mxGeometry relative="1" as="geometry" />
        </mxCell>
        <mxCell id="e8" parent="1" source="repos" target="mdb" edge="1">
          <mxGeometry relative="1" as="geometry" />
        </mxCell>
        <mxCell id="e9" parent="1" source="rl" target="redis" edge="1">
          <mxGeometry relative="1" as="geometry" />
        </mxCell>
        <mxCell id="e10" parent="1" source="mw" target="audit" edge="1">
          <mxGeometry relative="1" as="geometry" />
        </mxCell>
      </root>
    </mxGraphModel>
  </diagram>
</mxfile>
